<svg xmlns="http://www.w3.org/2000/svg" width="24" height="24" viewBox="0 0 24 24"><defs><style>.a{fill:#fff;fill-rule:evenodd;}</style></defs><path class="a" d="M12,0A12,12,0,1,1,0,12,12.006,12.006,0,0,1,12,0Zm0,1A11,11,0,1,1,1,12,11.005,11.005,0,0,1,12,1Zm-.045,17.51H11.94a7.878,7.878,0,0,1-6.153-3.349l.789-.614A6.9,6.9,0,0,0,11.94,17.51h.013a6.966,6.966,0,0,0,5.408-3.021l.791.611A7.934,7.934,0,0,1,11.955,18.51ZM8.487,8.5a1,1,0,1,1-1,1A1,1,0,0,1,8.487,8.5Zm7.013,0a1,1,0,1,1-1,1A1,1,0,0,1,15.5,8.5Z"/></svg>