<svg xmlns="http://www.w3.org/2000/svg" width="26" height="26" viewBox="0 0 26 26"><defs><style>.a{fill:none;}.b{fill:#fff;}</style></defs><g transform="translate(9.517 0) rotate(30)"><path class="a" d="M0,0H19.033V19.033H0Z" transform="translate(0 0)"/><path class="b" d="M13.574,19.027H8.263a3.313,3.313,0,0,1-2.343-.976L0,12.015l1.678-1.451a1.652,1.652,0,0,1,1.833-.214l1.954,1.015V3.791A2.006,2.006,0,0,1,7.492,1.808a2.433,2.433,0,0,1,.414.04A2.034,2.034,0,0,1,11.6.864a2.032,2.032,0,0,1,.762-.143A2.006,2.006,0,0,1,14.385,2.7v.222a2.265,2.265,0,0,1,.405-.04A2.006,2.006,0,0,1,16.817,4.87V15.854A3.208,3.208,0,0,1,13.574,19.027ZM2.335,12.111l4.752,4.838a1.658,1.658,0,0,0,1.168.492h5.319A1.609,1.609,0,0,0,15.2,15.854V4.87a.406.406,0,0,0-.811,0v4.64H12.763V2.7a.406.406,0,0,0-.811,0v6.8H10.33V1.983a.406.406,0,0,0-.811,0V9.509H7.9V3.791a.4.4,0,0,0-.405-.4.4.4,0,0,0-.405.4V14L2.749,11.754l-.414.357Z" transform="translate(0.856 0.007)"/></g></svg>