<svg xmlns="http://www.w3.org/2000/svg" width="26" height="26" viewBox="0 0 26 26"><defs><style>.a{fill:none;}.b{fill:#fff;}</style></defs><g transform="translate(0 9.517) rotate(-30)"><path class="a" d="M19.033,0H0V19.033H19.033Z" transform="translate(0 0)"/><path class="b" d="M3.227,19.026H8.511a3.288,3.288,0,0,0,2.332-.976l5.889-6.035-1.67-1.451a1.637,1.637,0,0,0-1.823-.214l-1.944,1.015V3.791A2,2,0,0,0,9.278,1.808a2.409,2.409,0,0,0-.411.04A2.021,2.021,0,0,0,5.2.864,2.028,2.028,0,0,0,2.42,2.7v.222a2.242,2.242,0,0,0-.4-.04A2,2,0,0,0,0,4.87V15.854A3.2,3.2,0,0,0,3.227,19.026Zm11.182-6.916L9.681,16.948a1.646,1.646,0,0,1-1.162.492H3.227a1.6,1.6,0,0,1-1.614-1.586V4.87a.4.4,0,0,1,.807,0v4.64H4.034V2.7a.4.4,0,0,1,.807,0v6.8H6.454V1.983a.4.4,0,0,1,.807,0V9.509H8.874V3.791a.4.4,0,0,1,.4-.4.4.4,0,0,1,.4.4V14L14,11.754l.411.357Z" transform="translate(1.412 0.007)"/></g></svg>