<svg xmlns="http://www.w3.org/2000/svg" width="22" height="22" viewBox="0 0 22 22"><defs><style>.a{fill:none;}.b{fill:#eb6877;}</style></defs><path class="a" d="M0,0H22V22H0Z"/><path class="b" d="M11.857,11.429a1.887,1.887,0,1,1,1.964-1.886A1.932,1.932,0,0,1,11.857,11.429Zm5.893-1.7a5.728,5.728,0,0,0-5.893-5.846A5.728,5.728,0,0,0,5.964,9.731c0,2.206,1.915,5.129,5.893,8.618C15.835,14.861,17.75,11.938,17.75,9.731ZM11.857,2a7.658,7.658,0,0,1,7.857,7.731q0,4.7-7.857,11.126Q4,14.422,4,9.731A7.658,7.658,0,0,1,11.857,2Z" transform="translate(-0.857 -0.429)"/></svg>