<svg xmlns="http://www.w3.org/2000/svg" width="24" height="24" viewBox="0 0 24 24"><defs><style>.a{fill:none;}.b{fill:#eb6877;}</style></defs><path class="a" d="M0,0H24V24H0Z"/><g transform="translate(2.571 1.714)"><path class="b" d="M20.286,3.543,18.714,2,17.143,3.543,15.571,2,14,3.543,12.429,2,10.857,3.543,9.286,2,7.714,3.543,6.143,2V16.4H3v3.086a3.111,3.111,0,0,0,3.143,3.086H18.714a3.111,3.111,0,0,0,3.143-3.086V2ZM15.571,20.514H6.143A1.041,1.041,0,0,1,5.1,19.486V18.457H15.571Zm4.19-1.029a1.048,1.048,0,0,1-2.1,0V16.4H8.238V5.086H19.762Z" transform="translate(-3 -2)"/><rect class="b" width="5.143" height="1.714" transform="translate(6.857 5.238)"/><rect class="b" width="1.714" height="1.714" transform="translate(13.929 5.238)"/><rect class="b" width="5.143" height="1.714" transform="translate(6.857 8.381)"/><rect class="b" width="1.714" height="1.714" transform="translate(13.929 8.381)"/></g></svg>